<svg width="500" height="20" viewBox="0 0 500 20" fill="none" xmlns="http://www.w3.org/2000/svg">
<path fill-rule="evenodd" clip-rule="evenodd" d="M11.5234 6.04443C22.1282 7.24721 49.9702 7.07748 125.55 6.57053C243.571 5.77096 337.249 6.4037 363.299 8.2517C365.368 8.42809 199.946 11.2417 182.948 10.3511C156.449 8.8945 29.9798 11.3802 4.54476 13.5324C-2.68577 14.11 0.0425628 15.8959 4.76142 16.2438C12.1309 16.8278 31.8972 16.5968 86.0934 16.0115C124.205 15.6261 427.437 14.5596 460.598 16.9292C479.214 18.2584 490.53 19.5197 495.695 19.1533C500.021 18.8584 500.079 18.0827 496.314 15.9826C493.783 14.5826 496.618 13.7189 498.424 13.3161C501.196 12.6468 500.015 10.4603 496.512 8.7455C491.776 6.39509 483.637 6.5282 487.533 8.88567C488.378 9.39538 488.582 10.6857 485.609 10.4523C476.946 9.75 415.728 4.96794 399.119 4.20331C221.781 -4.12352 48.8502 4.50282 12.2035 2.421C-0.788196 1.62593 5.18637 5.32255 11.5234 6.04443Z" fill="url(#paint0_linear_22_267)"/>
<defs>
<linearGradient id="paint0_linear_22_267" x1="557" y1="18" x2="552.846" y2="66.3279" gradientUnits="userSpaceOnUse">
<stop stop-color="#00A3FF"/>
<stop offset="1" stop-color="#FF00A8"/>
</linearGradient>
</defs>
</svg>
