<svg width="60" height="59" viewBox="0 0 60 59" fill="none" xmlns="http://www.w3.org/2000/svg">
<path fill-rule="evenodd" clip-rule="evenodd" d="M29.6484 0.927156C22.61 0.920002 15.7991 3.41957 10.4362 7.97794C5.07339 12.5363 1.5091 18.8555 0.382172 25.8031C-0.744759 32.7507 0.63932 39.8725 4.28634 45.8923C7.93336 51.9121 13.605 56.4364 20.2847 58.6544C21.7575 58.9272 22.3029 57.9999 22.3029 57.2181C22.3029 56.4362 22.3029 54.6544 22.3029 52.1817C14.0666 53.9999 12.3211 48.2181 12.3211 48.2181C11.7723 46.4261 10.6063 44.8865 9.03019 43.8726C6.35746 42.0544 9.24836 42.0544 9.24836 42.0544C10.1853 42.1868 11.0798 42.5306 11.8641 43.0598C12.6485 43.589 13.3022 44.2897 13.7756 45.109C14.1779 45.8384 14.7203 46.4813 15.3716 47.0006C16.023 47.5199 16.7704 47.9055 17.5712 48.1352C18.3719 48.365 19.2101 48.4344 20.0377 48.3394C20.8653 48.2444 21.666 47.9869 22.3938 47.5817C22.5079 46.086 23.1527 44.6803 24.212 43.6181C17.6302 42.8726 10.7211 40.3271 10.7211 28.9817C10.6759 26.0417 11.763 23.1968 13.7574 21.0362C12.8674 18.4802 12.9712 15.6829 14.0484 13.1999C14.0484 13.1999 16.5393 12.3999 22.1938 16.2362C27.0494 14.9031 32.1746 14.9031 37.0302 16.2362C42.6847 12.3999 45.1574 13.1999 45.1574 13.1999C46.2458 15.6794 46.3563 18.4787 45.4665 21.0362C47.4609 23.1968 48.5481 26.0417 48.5029 28.9817C48.5029 40.3635 41.5756 42.8544 34.9756 43.5271C35.6833 44.2385 36.2298 45.0938 36.578 46.0349C36.9262 46.976 37.068 47.981 36.9938 48.9817C36.9938 52.9453 36.9938 56.1453 36.9938 57.109C36.9938 58.0726 37.5211 58.8181 39.0302 58.5453C45.6889 56.3064 51.3358 51.7749 54.9637 45.7591C58.5916 39.7433 59.9645 32.6343 58.8376 25.7002C57.7107 18.7661 54.1572 12.4578 48.8109 7.90048C43.4647 3.34312 36.6734 0.833084 29.6484 0.818069V0.927156Z" fill="white"/>
</svg>
