<svg width="12" height="2" viewBox="0 0 12 2" id="lineIcon" fill="none" xmlns="http://www.w3.org/2000/svg">
<path fill-rule="evenodd" clip-rule="evenodd" d="M0.669995 0.0097313C-0.0022652 0.0480633 -0.0783731 0.101721 0.111889 0.385377C0.321175 0.6997 0.758784 0.776387 4.15813 0.906716C0.232391 0.998705 -0.129113 1.10603 0.0294388 1.46636C0.232385 1.91867 1.53251 1.87267 7.86187 1.88801C9.75815 1.89567 10.8109 2.026 11.35 1.99534C12.0984 1.94934 11.9145 1.59668 11.6037 1.43569L11.7749 1.39736C12.2252 1.29769 11.9525 0.669057 11.3754 0.485064C10.868 0.324069 7.95066 0.155393 5.14115 0.124727C1.4247 0.0940617 1.43738 -0.0362671 0.669995 0.0097313Z" fill="white"/>
</svg>
