<svg width="12" height="12" viewBox="0 0 12 12" id="listIcon" fill="none" xmlns="http://www.w3.org/2000/svg">
<path fill-rule="evenodd" clip-rule="evenodd" d="M5.38348 0.101375C3.76247 0.364121 2.13428 1.82116 1.23771 3.8037C0.0829181 6.36746 -0.361785 8.77198 0.326786 8.77198C0.369822 8.77198 0.441547 8.46146 0.491755 8.03947C0.570654 7.37067 0.914941 6.00917 0.986667 6.08879C1.00101 6.10471 0.965149 6.35153 0.907768 6.6302C-0.0533619 11.1526 5.12526 13.7164 9.07737 10.6829C14.4927 6.53466 11.8747 -0.957569 5.38348 0.101375ZM7.75761 0.666674C8.03734 0.714446 8.05169 0.921459 7.39898 0.961269C6.57413 1.017 5.1683 1.34344 4.31476 1.88486C3.79833 2.2113 3.63336 1.88486 4.07089 1.55046C5.12526 0.754257 6.49523 0.443739 7.75761 0.666674ZM8.20231 1.72562C8.91957 1.86894 9.6727 2.30684 10.0959 2.82437C13.2805 6.74963 6.71758 13.1192 3.34646 9.37709C0.520447 6.25599 3.93461 0.881649 8.20231 1.72562ZM2.70092 9.52837C3.46122 10.3564 4.49407 10.8978 5.65603 11.081C6.26571 11.1765 6.27288 11.2083 5.72776 11.3119C2.06256 12.0205 1.79717 8.03151 1.79 8.01559C1.91911 8.26241 2.09842 8.87548 2.70092 9.52837Z" fill="white"/>
</svg>
